<svg width="14" height="17" viewBox="0 0 14 17" fill="none" xmlns="http://www.w3.org/2000/svg">
<path d="M13.75 3.5H12.75V15C12.75 15.2083 12.7109 15.4036 12.6328 15.5859C12.5547 15.7682 12.4479 15.9271 12.3125 16.0625C12.1771 16.1979 12.0182 16.3047 11.8359 16.3828C11.6536 16.4609 11.4583 16.5 11.25 16.5H3.25C3.04167 16.5 2.84635 16.4609 2.66406 16.3828C2.48177 16.3047 2.32292 16.1979 2.1875 16.0625C2.05208 15.9271 1.94531 15.7682 1.86719 15.5859C1.78906 15.4036 1.75 15.2083 1.75 15V3.5H0.75V2.5H4.75V1.5C4.75 1.35938 4.77604 1.22917 4.82812 1.10938C4.88021 0.989583 4.95052 0.885417 5.03906 0.796875C5.13281 0.703125 5.23958 0.630208 5.35938 0.578125C5.47917 0.526042 5.60938 0.5 5.75 0.5H8.75C8.89062 0.5 9.02083 0.526042 9.14062 0.578125C9.26042 0.630208 9.36458 0.703125 9.45312 0.796875C9.54688 0.885417 9.61979 0.989583 9.67188 1.10938C9.72396 1.22917 9.75 1.35938 9.75 1.5V2.5H13.75V3.5ZM5.75 2.5H8.75V1.5H5.75V2.5ZM11.75 3.5H2.75V15C2.75 15.1354 2.79948 15.2526 2.89844 15.3516C2.9974 15.4505 3.11458 15.5 3.25 15.5H11.25C11.3854 15.5 11.5026 15.4505 11.6016 15.3516C11.7005 15.2526 11.75 15.1354 11.75 15V3.5ZM5.75 13.5H4.75V5.5H5.75V13.5ZM7.75 13.5H6.75V5.5H7.75V13.5ZM9.75 13.5H8.75V5.5H9.75V13.5Z" fill="#252423"/>
</svg>
