<svg width="17" height="17" viewBox="0 0 17 17" fill="none" xmlns="http://www.w3.org/2000/svg">
<path d="M16.75 3.11719C16.75 3.46094 16.6849 3.79427 16.5547 4.11719C16.4245 4.4401 16.2344 4.72656 15.9844 4.97656L5.69531 15.2656L0.75 16.5L1.98438 11.5547L12.2734 1.26562C12.5234 1.01562 12.8099 0.825521 13.1328 0.695312C13.4557 0.565104 13.7891 0.5 14.1328 0.5C14.4922 0.5 14.8307 0.570312 15.1484 0.710938C15.4661 0.846354 15.7422 1.03385 15.9766 1.27344C16.2161 1.50781 16.4036 1.78385 16.5391 2.10156C16.6797 2.41927 16.75 2.75781 16.75 3.11719ZM3.29688 11.6562C3.84896 11.8385 4.32292 12.1302 4.71875 12.5312C5.11979 12.9271 5.41146 13.401 5.59375 13.9531L14.0391 5.5L11.75 3.21094L3.29688 11.6562ZM2.125 15.125L4.69531 14.4844C4.64323 14.2448 4.55729 14.0182 4.4375 13.8047C4.32292 13.5911 4.18229 13.401 4.01562 13.2344C3.84896 13.0677 3.65885 12.9271 3.44531 12.8125C3.23177 12.6927 3.00521 12.6068 2.76562 12.5547L2.125 15.125ZM14.75 4.78906C14.8802 4.65885 15.0052 4.53646 15.125 4.42188C15.2448 4.30729 15.3516 4.1875 15.4453 4.0625C15.5391 3.93229 15.612 3.79427 15.6641 3.64844C15.7214 3.4974 15.75 3.32292 15.75 3.125C15.75 2.90104 15.7057 2.69271 15.6172 2.5C15.5339 2.30208 15.4167 2.13021 15.2656 1.98438C15.1198 1.83333 14.9479 1.71615 14.75 1.63281C14.5573 1.54427 14.349 1.5 14.125 1.5C13.9271 1.5 13.7526 1.52865 13.6016 1.58594C13.4557 1.63802 13.3177 1.71094 13.1875 1.80469C13.0625 1.89844 12.9427 2.00521 12.8281 2.125C12.7135 2.24479 12.5911 2.36979 12.4609 2.5L14.75 4.78906Z" fill="#252423"/>
</svg>
