<svg width="18" height="19" viewBox="0 0 18 19" fill="none" xmlns="http://www.w3.org/2000/svg">
<path d="M8.25 3.5V8.5H11.25V9.5H7.25V3.5H8.25Z" fill="#252423"/>
<path d="M13.25 13.5V16H12.25V13.5H13.25ZM12.25 16.5H13.25V17.5H12.25V16.5ZM17.25 18.5H8.25L12.75 9.5L17.25 18.5ZM9.66406 17.625H15.8359L12.75 11.4531L9.66406 17.625Z" fill="#252423"/>
<path fill-rule="evenodd" clip-rule="evenodd" d="M6.11719 16.2188C6.79948 16.4062 7.51042 16.5 8.25 16.5C8.4206 16.5 8.5898 16.4949 8.75759 16.4848L9.28798 15.424C8.94911 15.4747 8.60311 15.5 8.25 15.5C7.60938 15.5 6.98958 15.4167 6.39062 15.25C5.79688 15.0833 5.23958 14.849 4.71875 14.5469C4.20312 14.2396 3.73177 13.8724 3.30469 13.4453C2.8776 13.0182 2.51042 12.5469 2.20312 12.0312C1.90104 11.5104 1.66667 10.9531 1.5 10.3594C1.33333 9.76042 1.25 9.14062 1.25 8.5C1.25 7.85938 1.33333 7.24219 1.5 6.64844C1.66667 6.04948 1.90104 5.49219 2.20312 4.97656C2.51042 4.45573 2.8776 3.98177 3.30469 3.55469C3.73177 3.1276 4.20312 2.76302 4.71875 2.46094C5.23958 2.15365 5.79688 1.91667 6.39062 1.75C6.98958 1.58333 7.60938 1.5 8.25 1.5C8.89062 1.5 9.50781 1.58333 10.1016 1.75C10.7005 1.91667 11.2578 2.15365 11.7734 2.46094C12.2943 2.76302 12.7682 3.1276 13.1953 3.55469C13.6224 3.98177 13.987 4.45573 14.2891 4.97656C14.5964 5.49219 14.8333 6.04948 15 6.64844C15.1667 7.24219 15.25 7.85938 15.25 8.5C15.25 9.14062 15.1667 9.76042 15 10.3594C14.8558 10.8732 14.6589 11.3596 14.4094 11.8188L14.9431 12.8862C15.017 12.7725 15.0881 12.6568 15.1562 12.5391C15.5052 11.9453 15.7734 11.3099 15.9609 10.6328C16.1536 9.95052 16.25 9.23958 16.25 8.5C16.25 7.76562 16.1536 7.05729 15.9609 6.375C15.7734 5.69271 15.5052 5.05469 15.1562 4.46094C14.8125 3.86719 14.3958 3.32812 13.9062 2.84375C13.4219 2.35417 12.8828 1.9375 12.2891 1.59375C11.6953 1.24479 11.0573 0.976562 10.375 0.789062C9.69271 0.596354 8.98438 0.5 8.25 0.5C7.51562 0.5 6.80729 0.596354 6.125 0.789062C5.44271 0.976562 4.80469 1.24479 4.21094 1.59375C3.61719 1.9375 3.07552 2.35417 2.58594 2.84375C2.10156 3.32812 1.6849 3.86719 1.33594 4.46094C0.992188 5.05469 0.723958 5.69271 0.53125 6.375C0.34375 7.05729 0.25 7.76562 0.25 8.5C0.25 9.23438 0.34375 9.94271 0.53125 10.625C0.723958 11.3073 0.992188 11.9453 1.33594 12.5391C1.6849 13.1328 2.10156 13.6745 2.58594 14.1641C3.07552 14.6484 3.61719 15.0651 4.21094 15.4141C4.80469 15.7578 5.4401 16.026 6.11719 16.2188Z" fill="#252423"/>
</svg>
