<svg width="16" height="17" viewBox="0 0 16 17" fill="none" xmlns="http://www.w3.org/2000/svg">
<path d="M15.75 9.82379C15.75 10.4227 15.6719 10.9983 15.5156 11.5504C15.3594 12.1024 15.1406 12.6207 14.8594 13.105C14.5781 13.5842 14.2396 14.0217 13.8438 14.4175C13.4479 14.8134 13.0078 15.1519 12.5234 15.4332C12.0443 15.7144 11.5286 15.9332 10.9766 16.0894C10.4245 16.2457 9.84896 16.3238 9.25 16.3238C8.65104 16.3238 8.07552 16.2457 7.52344 16.0894C6.97135 15.9332 6.45312 15.7144 5.96875 15.4332C5.48958 15.1519 5.05208 14.8134 4.65625 14.4175C4.26042 14.0217 3.92188 13.5842 3.64062 13.105C3.35938 12.6207 3.14062 12.1024 2.98438 11.5504C2.82812 10.9983 2.75 10.4227 2.75 9.82379V9.32379H3.75V9.82379C3.75 10.329 3.8151 10.816 3.94531 11.2847C4.07552 11.7535 4.26042 12.191 4.5 12.5972C4.73958 13.0035 5.02604 13.3759 5.35938 13.7144C5.69792 14.0477 6.07031 14.3342 6.47656 14.5738C6.88281 14.8134 7.32031 14.9983 7.78906 15.1285C8.25781 15.2587 8.74479 15.3238 9.25 15.3238C9.75521 15.3238 10.2422 15.2587 10.7109 15.1285C11.1797 14.9983 11.6172 14.8134 12.0234 14.5738C12.4297 14.3342 12.7995 14.0477 13.1328 13.7144C13.4714 13.3759 13.7604 13.0035 14 12.5972C14.2396 12.191 14.4245 11.7535 14.5547 11.2847C14.6849 10.816 14.75 10.329 14.75 9.82379C14.75 9.31858 14.6849 8.8316 14.5547 8.36285C14.4245 7.8941 14.2396 7.4566 14 7.05035C13.7604 6.6441 13.4714 6.27431 13.1328 5.94098C12.7995 5.60244 12.4297 5.31337 12.0234 5.07379C11.6172 4.83421 11.1797 4.64931 10.7109 4.5191C10.2422 4.3889 9.75521 4.32379 9.25 4.32379H2.70312L4.97656 6.59723L4.27344 7.30035L0.796875 3.82379L4.27344 0.347229L4.97656 1.05035L2.70312 3.32379H9.25C9.84896 3.32379 10.4245 3.40192 10.9766 3.55817C11.5286 3.71442 12.0443 3.93317 12.5234 4.21442C13.0078 4.49567 13.4479 4.83421 13.8438 5.23004C14.2396 5.62587 14.5781 6.06598 14.8594 6.55035C15.1406 7.02952 15.3594 7.54515 15.5156 8.09723C15.6719 8.64931 15.75 9.22483 15.75 9.82379Z" fill="#252423"/>
</svg>
