<svg width="16" height="17" viewBox="0 0 16 17" fill="none" xmlns="http://www.w3.org/2000/svg">
<path d="M13.9297 8.46875C13.9297 8.51562 13.9297 8.5625 13.9297 8.60938C13.9349 8.65625 13.9375 8.70312 13.9375 8.75C13.9375 8.79688 13.9349 8.84375 13.9297 8.89062C13.9297 8.9375 13.9297 8.98438 13.9297 9.03125L15.9531 10.2891L14.7109 13.2812L12.3906 12.75C12.2656 12.8854 12.1354 13.0156 12 13.1406L12.5312 15.4609L9.53906 16.7031L8.28125 14.6797C8.23438 14.6797 8.1875 14.6823 8.14062 14.6875C8.09375 14.6875 8.04688 14.6875 8 14.6875C7.95312 14.6875 7.90625 14.6875 7.85938 14.6875C7.8125 14.6823 7.76562 14.6797 7.71875 14.6797L6.46094 16.7031L3.46875 15.4609L4 13.1406C3.86458 13.0156 3.73438 12.8854 3.60938 12.75L1.28906 13.2812L0.046875 10.2891L2.07031 9.03125C2.07031 8.98438 2.06771 8.9375 2.0625 8.89062C2.0625 8.84375 2.0625 8.79688 2.0625 8.75C2.0625 8.70312 2.0625 8.65625 2.0625 8.60938C2.06771 8.5625 2.07031 8.51562 2.07031 8.46875L0.046875 7.21094L1.28906 4.21875L3.60938 4.75C3.73438 4.61458 3.86458 4.48438 4 4.35938L3.46875 2.03906L6.46094 0.796875L7.71875 2.82031C7.76562 2.82031 7.8125 2.82031 7.85938 2.82031C7.90625 2.8151 7.95312 2.8125 8 2.8125C8.04688 2.8125 8.09375 2.8151 8.14062 2.82031C8.1875 2.82031 8.23438 2.82031 8.28125 2.82031L9.53906 0.796875L12.5312 2.03906L12 4.35938C12.1354 4.48438 12.2656 4.61458 12.3906 4.75L14.7109 4.21875L15.9531 7.21094L13.9297 8.46875ZM13.0156 9.48438C13.026 9.35938 13.0365 9.23698 13.0469 9.11719C13.0573 8.99219 13.0625 8.86719 13.0625 8.74219C13.0625 8.6224 13.0573 8.5 13.0469 8.375C13.0365 8.25 13.026 8.1276 13.0156 8.00781L14.8594 6.85938L14.1875 5.23438L12.0703 5.72656C11.9089 5.52865 11.7422 5.34635 11.5703 5.17969C11.4036 5.01302 11.2214 4.84635 11.0234 4.67969L11.5156 2.5625L9.89062 1.89062L8.73438 3.73438C8.61458 3.72396 8.49219 3.71354 8.36719 3.70312C8.24219 3.69271 8.11979 3.6875 8 3.6875C7.875 3.6875 7.75 3.69271 7.625 3.70312C7.50521 3.71354 7.38281 3.72396 7.25781 3.73438L6.10938 1.89062L4.48438 2.5625L4.97656 4.67969C4.77865 4.84115 4.59635 5.00781 4.42969 5.17969C4.26302 5.34635 4.09635 5.52865 3.92969 5.72656L1.8125 5.23438L1.14062 6.85938L2.98438 8.01562C2.97396 8.14062 2.96354 8.26562 2.95312 8.39062C2.94271 8.51042 2.9375 8.63281 2.9375 8.75781C2.9375 8.8776 2.94271 9 2.95312 9.125C2.96354 9.25 2.97396 9.3724 2.98438 9.49219L1.14062 10.6406L1.8125 12.2656L3.92969 11.7734C4.09115 11.9714 4.25521 12.1536 4.42188 12.3203C4.59375 12.487 4.77865 12.6536 4.97656 12.8203L4.48438 14.9375L6.10938 15.6094L7.26562 13.7656C7.38542 13.776 7.50781 13.7865 7.63281 13.7969C7.75781 13.8073 7.88021 13.8125 8 13.8125C8.125 13.8125 8.2474 13.8073 8.36719 13.7969C8.49219 13.7865 8.61719 13.776 8.74219 13.7656L9.89062 15.6094L11.5156 14.9375L11.0234 12.8203C11.2214 12.6589 11.4036 12.4948 11.5703 12.3281C11.737 12.1562 11.9036 11.9714 12.0703 11.7734L14.1875 12.2656L14.8594 10.6406L13.0156 9.48438ZM8 5.8125C8.40625 5.8125 8.78646 5.89062 9.14062 6.04688C9.5 6.19792 9.8125 6.40625 10.0781 6.67188C10.3438 6.9375 10.5521 7.25 10.7031 7.60938C10.8594 7.96354 10.9375 8.34375 10.9375 8.75C10.9375 9.15625 10.8594 9.53906 10.7031 9.89844C10.5521 10.2526 10.3438 10.5625 10.0781 10.8281C9.8125 11.0938 9.5 11.3047 9.14062 11.4609C8.78646 11.612 8.40625 11.6875 8 11.6875C7.59375 11.6875 7.21094 11.612 6.85156 11.4609C6.4974 11.3047 6.1875 11.0938 5.92188 10.8281C5.65625 10.5625 5.44531 10.2526 5.28906 9.89844C5.13802 9.53906 5.0625 9.15625 5.0625 8.75C5.0625 8.34375 5.13802 7.96354 5.28906 7.60938C5.44531 7.25 5.65625 6.9375 5.92188 6.67188C6.1875 6.40625 6.4974 6.19792 6.85156 6.04688C7.21094 5.89062 7.59375 5.8125 8 5.8125ZM8 10.8125C8.28646 10.8125 8.55469 10.7604 8.80469 10.6562C9.05469 10.5469 9.27344 10.3984 9.46094 10.2109C9.64844 10.0234 9.79427 9.80469 9.89844 9.55469C10.0078 9.30469 10.0625 9.03646 10.0625 8.75C10.0625 8.46354 10.0078 8.19531 9.89844 7.94531C9.79427 7.69531 9.64844 7.47656 9.46094 7.28906C9.27344 7.10156 9.05469 6.95573 8.80469 6.85156C8.55469 6.74219 8.28646 6.6875 8 6.6875C7.71354 6.6875 7.44531 6.74219 7.19531 6.85156C6.94531 6.95573 6.72656 7.10156 6.53906 7.28906C6.35156 7.47656 6.20312 7.69531 6.09375 7.94531C5.98958 8.19531 5.9375 8.46354 5.9375 8.75C5.9375 9.03646 5.98958 9.30469 6.09375 9.55469C6.20312 9.80469 6.35156 10.0234 6.53906 10.2109C6.72656 10.3984 6.94531 10.5469 7.19531 10.6562C7.44531 10.7604 7.71354 10.8125 8 10.8125Z" fill="#201F1E"/>
</svg>
